<svg width="31" height="14" viewBox="0 0 31 14" fill="none" xmlns="http://www.w3.org/2000/svg">
<path d="M0.2 -9.53674e-07H8.6C10 -9.53674e-07 11.0133 0.319999 11.64 0.96C12.28 1.58667 12.6 2.6 12.6 4V5.8C12.6 6.90667 12.4133 7.76667 12.04 8.38C11.68 8.99333 11.1 9.4 10.3 9.6L12.8 14H8.9L6.6 9.8H3.8V14H0.2V-9.53674e-07ZM9 4C9 3.2 8.6 2.8 7.8 2.8H3.8V7H7.8C8.6 7 9 6.6 9 5.8V4ZM26.5945 6.2L23.7945 11.2H20.9945L18.1945 6.2V14H14.5945V-9.53674e-07H18.3945L22.3945 7.4L26.3945 -9.53674e-07H30.1945V14H26.5945V6.2Z" fill="#FFC700"/>
</svg>
