<?xml version="1.0" encoding="UTF-8"?>
<svg id="Layer_2" data-name="Layer 2" xmlns="http://www.w3.org/2000/svg" viewBox="0 0 1499.17 2333.86">
  <defs>
    <style>
      .cls-1 {
        fill: #000;
        stroke-width: 0px;
      }
    </style>
  </defs>
  <g id="Layer_1-2" data-name="Layer 1">
    <g>
      <path class="cls-1" d="M1321.12,2333.86H223.85c-.67-3.08-1.33-6.17-2-9.25,0-.24,0-.48,0-.72,0-.68,0-1.36,0-2.05.66-.65,1.33-1.3,1.99-1.95-.36-.36-.71-.72-1.07-1.08,0,0,.1.12.1.12-.34-1.36-.69-2.72-1.03-4.09,0-.32,0-.63,0-.95v-1.05c0-.32,0-.63,0-.95-.8-.42-1.6-.83-2.4-1.25,1.43-7.93,2.85-15.85,4.28-23.78.71-.34,1.41-.67,2.12-1.01,0-.32,0-.63,0-.95-.36-.67-.72-1.34-1.08-2,.07-.32.07-.69.23-.95,4.26-6.94-3.52-16.45,5-22.83,1.35-1.01.13-5.44.1-8.29.25-.3.49-.61.74-.91,0,0,.02-.02.02-.02.33-.33.65-.65.98-.98.34-.34.67-.67,1.01-1.01.1.12.21.25.31.37-.1-.13-.2-.25-.31-.38,1.54-2.82,3.94-5.5,4.43-8.5,1.14-6.92.8-13.91,2.93-20.9,2.54-8.33,3.02-17.28,4.6-25.92.68-3.7,2.11-7.27,2.78-10.97,1.55-8.57,2.53-17.25,4.33-25.77,2.15-10.2-.45-10.74-9.28-11.6-8.41-.82-16.95-.15-25.43-.35-10.58-.24-21.15-.69-31.73-1.07-2.92-.1-5.94-.84-8.73-.3-9.7,1.88-19.39,3.18-29.27,1.75-3.16-.46-6.53-1.91-9.43-1.27-8.44,1.88-15.14-2.49-21.83-5.79-5.32-2.62-9.95-6.94-14.33-11.09-6.08-5.76-12.68-11.39-17.19-18.3-7.77-11.91-14.18-24.72-20.96-37.26-1.99-3.69-3.51-7.68-4.86-11.67-2.64-7.81-5.22-15.64-7.4-23.59-1.25-4.56-1.57-9.36-2.46-14.02-1.7-8.88-3.8-17.68-5.22-26.6-2.39-14.98-4.42-30.02-6.51-45.05-.93-6.69-1.76-13.39-2.35-20.12-.34-3.87.06-7.79-.19-11.68-.92-14.52-2.46-29.02-2.83-43.55-.36-14.28.54-28.6.66-42.9.09-11.17-.45-22.34-.22-33.5.22-10.81.96-21.61,1.64-32.4.91-14.31,1.86-28.61,3.02-42.9,1.4-17.28,2.94-34.56,4.59-51.82,1.21-12.64.49-13.88-11.88-17.58-.32-.1-.66-.1-.98-.2-10.38-3.4-21.9-4.61-28.76-14.85,0-.67,0-1.33,0-2,1.35-4.39,2.82-8.75,4.03-13.18,2.47-9.02,4.62-18.14,7.25-27.12,5.63-19.26,11.76-38.39,17.13-57.72,3.21-11.56,5.14-23.48,8.07-35.13,2.43-9.68,5.6-19.17,8.22-28.81,1.63-5.99,3.77-12.06,3.97-18.14.18-5.61.16-11,2.12-16.35.89-2.42,1.07-5.15,1.27-7.77,1-12.76,3.1-25.31,7.4-37.39,3.31-9.32,7.13-18.46,10.41-27.79,1.85-5.27,2.91-10.81,4.57-16.15,3.88-12.51,8.47-24.83,11.71-37.5,2.99-11.71,4.25-23.85,6.9-35.65,1.93-8.61,4.66-17.07,7.46-25.46,1.75-5.26,4.85-10.09,6.35-15.4,4.57-16.11,8.6-32.37,12.98-48.54,1.07-3.95,2.68-7.76,4.06-11.63,2.33-6.55,2.57-13.9,7.72-19.39,1.18-1.26,1.71-3.18,2.39-4.86,3.78-9.35,7.49-18.61,13.83-26.78,4.7-6.05,8.41-13.05,11.53-20.09,5.13-11.58,10.25-22.91,21.5-30.08,1.52-.97,2.5-2.97,3.43-4.66,4.67-8.49,9.08-17.12,13.91-25.52,2.89-5.01,7.08-9.36,9.46-14.56,5.47-11.95,9.82-24.36,18.86-34.43,6.77-7.54,13.18-15.74,22.73-19.45,11.46-4.45,23.02-8.36,34.09-13.98,16.84-8.55,34.52-15.42,51.73-23.27,10.37-4.73,20.42-10.14,30.77-14.9,11.35-5.22,22.97-9.83,34.3-15.09,8.06-3.74,15.46-9.3,23.82-11.91,13.49-4.21,25.71-11.73,40.29-13.45,10.41-1.23,20.29-6.44,30.58-9.2,15.26-4.09,30.8-7.11,45.98-11.45,12.64-3.61,24.97-8.33,37.32-12.86,2.14-.78,4.5-2.73,5.43-4.75,5.38-11.61,12.81-21.19,24.24-27.43,1.31-.72,2.44-2.74,2.68-4.3,1.36-8.81,2.41-17.67,3.59-26.52,2.14-16.07,4.56-32.1,6.33-48.2,1.09-9.87.86-19.89,1.84-29.78.58-5.9-.42-10.88-3.52-15.99-11.23-18.45-19.33-38.27-24.11-59.34-2.88-12.71-5.29-25.53-7.76-38.32-.54-2.81-1.57-3.4-4.56-3.53-2.96-.13-7.13-1.51-8.51-3.74-5.55-9-11.03-18.21-15.02-27.97-4.67-11.44-8.18-23.41-11.39-35.36-2.47-9.2-4.94-18.69-5.21-28.12-.42-14.82-2.46-29.27-5.24-43.76-2.27-11.81.59-17.76,11.45-20.41,1.71-.42,3.39-.91,3.95-1.05,0-7.26.41-13.91-.11-20.49-.6-7.67-1.98-15.28-3.07-22.91-.09-.61-.48-1.2-.81-1.74-3.93-6.36-7.98-12.64-11.73-19.1-1.04-1.8-1.22-4.1-1.78-6.11-2.04,2.08-3.87,2.14-5.42-.93-2.44-4.86-4.88-9.72-7.57-14.44-1.82-3.18-3.86-6.51-8.77-4.43-.38-5.74.08-11.26-1.29-16.29-1.58-5.8-4.37-11.37-7.33-16.66-5.64-10.1-11.47-20.1-13.01-31.78-.94-7.14-2.33-14.5-1.52-21.53.79-6.81,3.92-13.41,6.44-19.94,3.28-8.51,6.98-16.86,10.47-25.29.07-.17-.22-.5-.4-.87-.93.72-1.83,1.42-3.36,2.6,0-1.72-.36-2.87.06-3.39,5.18-6.44,10.39-12.88,15.79-19.13,2.71-3.14,8.29-4.46,6.11-10.48-.12-.33.65-1.14,1.16-1.51,7.11-5.03,14.09-10.25,21.44-14.91,2.77-1.75,4.75-3.31,4.62-6.73,0-.24.36-.49.59-.78.66.63,1.3,1.24,1.86,1.78,3.34-5.66,6.65-11.12,9.8-16.68,1.98-3.5,3.05-7.76,5.7-10.58,9.63-10.28,19.75-20.11,29.7-30.09,7.55-7.58,14.8-15.51,22.82-22.57,5.9-5.19,11.21-11.44,19.8-13.11,4.43-.86,10.15-2.48,12.32-5.73,2.79-4.17,10.34-3.65,9.68-10.47,4.79-2.87,9.57-5.77,14.38-8.61,3.62-2.14,7.29-4.21,10.93-6.32,4.68-2.71,9.42-5.33,14.01-8.18,3.63-2.26,8.68-.19,11.87-4.22.56-.71,3.58.51,5.46.87,1.25.24,2.74,1.11,3.68.7,3.3-1.43,6.3-3.54,9.6-4.96,9.72-4.19,18.65-10.66,29.84-10.68,3.06,0,6.15.73,9.16.45,11.38-1.05,22.73-2.39,34.1-3.59,4.88-.52,9.76-1.01,14.65-1.45,6.87-.62,13.81-2.06,20.6-1.52,6.6.52,13.24,2.54,19.49,4.91,6.4,2.43,12.71,5.52,18.36,9.35,5.12,3.47,13.31,1.89,15.8,9.56.08.24.53.36.83.51,5.03,2.66,10.22,5.07,15.08,8.03,18.75,11.42,35.74,24.88,50.26,41.58,5.98,6.88,14.24,11.72,20.81,18.16,10.25,10.04,20.21,20.42,29.77,31.11,4.27,4.78,7.12,10.8,10.94,16.01,3.96,5.41,8.4,10.46,12.43,15.82,1.32,1.75,1.99,3.99,2.96,6-.45.22-.9.44-1.35.66-2.29-3.49-4.58-6.98-6.9-10.52-1.06.93-1.87,1.63-2.66,2.33,1.17,1.63,2.4,2.94,3.15,4.47,3.35,6.83,6.56,13.73,9.84,20.59.97,2.03,2.65,3.95,2.88,6.04.77,7.11,3.99,13.5,3.68,21.21-.3,7.57,4.32,15.24,6.13,23.02,3.23,13.94,3.49,28.08,2.84,42.4-.39,8.55-4.11,16.36-2.88,25.48,1.17,8.65-1.75,17.85-2.88,26.81-.39,3.11-.48,6.3-1.25,9.31-2.07,8.05-4.17,16.12-6.75,24.02-2.13,6.54-5.73,12.67-7.27,19.31-1.63,7.04-5.73,13.44-3.96,21.6,1.14,5.27.94,6.9,6.45,5.61,4.62-1.08,13.8,2.22,15.18,6.38,2.05,6.19,4.21,12.71,4.28,19.1.14,12.8-1.09,25.62-1.79,38.43-.62,11.41-1.14,22.82-1.96,34.21-1.23,17.1-3.7,33.87-11.84,49.41-2.55,4.87-3.59,10.53-5.41,15.8-.37,1.06-.91,2.4-1.78,2.89-4.38,2.45-8.69,5.35-13.42,6.72-3.77,1.1-8.12.22-12.65.22-.77,1.85-2.12,4.19-2.73,6.71-2.16,8.93-3.71,18.02-6.15,26.87-3.69,13.41-7.48,26.83-12.04,39.97-6.15,17.72-15.68,33.81-25.71,49.58-3.44,5.4-8.63,10.46-9.85,16.33-3.06,14.72-4.98,29.76-6.08,44.77-1.17,15.9-.86,31.91-1.19,47.87-.1,4.77,1.08,8.66,6.07,10.77,2.53,1.07,5.06,2.74,6.89,4.77,6.53,7.24,12.62,14.87,19.19,22.08,1.72,1.88,4.45,3.6,6.9,3.91,6.55.83,13.22.75,19.82,1.26,3.25.25,6.62.56,9.64,1.67,5.53,2.02,10.79,4.72,16.24,6.98,4.11,1.7,8.54,2.73,12.46,4.77,12.9,6.72,25.62,13.77,38.42,20.67,3.15,1.7,6.38,3.26,9.53,4.97,7.96,4.31,15.79,8.88,23.87,12.94,5.26,2.64,10.81,4.71,16.34,6.77,2.75,1.03,5.7,1.58,8.6,2.13,11.88,2.28,24.1,3.2,34.87,9.61,1.94,1.16,4.24,1.91,6.47,2.34,10.33,1.98,20.83,3.25,31.02,5.78,11.29,2.79,22.41,6.37,33.41,10.17,7.26,2.51,14.21,5.94,21.24,9.09,9.97,4.48,21.08,6.56,29.48,14.37,2.88,2.68,6.27,4.84,9.52,7.1,13.84,9.59,27.92,18.87,41.52,28.79,7.55,5.51,13.14,13.4,16.83,21.69,7.06,15.84,12.69,32.32,18.79,48.57,2.37,6.3,4.87,12.59,6.53,19.09,2.71,10.66,4.76,21.48,7.12,32.23,5.15,23.45,10.3,46.89,15.48,70.33,2.21,9.99,4.5,19.87,4.58,30.29.06,7.99,2.21,15.96,3.43,23.93,1.1,7.16,2.36,14.29,3.27,21.47,1.24,9.83,2.37,19.67,3.28,29.53,1.48,15.98,2.7,31.98,4.11,47.96.7,7.96.99,16,2.45,23.83,3.3,17.66,7.12,35.23,10.92,52.79,1.11,5.12,3.21,10.04,4.16,15.19,1.17,6.32,1.17,12.86,2.43,19.15,3.53,17.58,7.05,35.19,11.34,52.59,4.37,17.72,9.82,35.18,14.5,52.83,5.43,20.48,11.2,40.91,15.45,61.65,1.85,9,.16,18.71.32,28.09.05,2.75.8,5.5,1.42,8.21.21.91,1.06,1.67,1.55,2.54,8.04,14.03,4.22,18.02-7.32,24.78-4.12,2.42-4.79,4.77-3.99,8.65.2.97.38,1.97.39,2.95.39,24.66,1.15,49.32.95,73.97-.1,12.2-2.06,24.38-3.01,36.58-.52,6.62-.63,13.26-1.02,19.89-.93,15.91-1.88,31.83-2.91,47.74-.41,6.28-.92,12.56-1.61,18.81-1.72,15.62-3.57,31.22-5.38,46.82-1.31,11.33-2.19,22.74-4.12,33.96-1.73,10.04-4.1,20.05-7.19,29.75-3.59,11.29-7.88,22.4-12.58,33.28-4.78,11.07-10.5,21.72-15.65,32.64-6.97,14.79-16.07,27.94-29.92,37-5.97,3.91-12.58,8.48-19.29,9.2-9.26.99-19.1-.42-28.31-2.5-17.84-4.03-35.74-6.87-54.02-7.16-4.76-.08-7.55,2.53-7.33,6.85.24,4.74.95,9.46,1.48,14.18.58,5.21,1.42,10.4,1.72,15.62.3,5.29-.25,10.64.17,15.92.81,9.96,1.95,19.9,3.15,29.82,1.64,13.53,3.1,27.1,5.35,40.53,1.96,11.71,5.11,23.21,7.35,34.88,2.03,10.57,2.74,21.46,5.51,31.81,3.21,11.98,3.09,24.08,3.78,36.2ZM858.28,8.5c5.14,1.99,10.27,3.98,15.41,5.97l.61-2.22c-5.39-1.19-10.78-2.37-16.17-3.56-2.35-3.31-12.12-5.9-17.53-3.87,3.17.83,5.53,2.24,7.44,1.78,3.89-.93,7.1-.25,10.23,1.89Z"/>
      <path class="cls-1" d="M219.69,2315.93c-.07-1.81-.15-3.63-.22-5.44.47.81.94,1.62,1.42,2.43,0,0-.11-.09-.11-.09.36.35.72.71,1.08,1.06,0,.32,0,.63,0,.95-.72.36-1.45.73-2.17,1.09Z"/>
      <path class="cls-1" d="M221.81,2318.79c.36.04.72.09,1.08.13,0,0-.1-.12-.1-.12.36.36.71.72,1.07,1.08-.66.65-1.33,1.3-1.99,1.95-.02-1.02-.04-2.03-.06-3.05Z"/>
      <path class="cls-1" d="M232.86,2247.91c.1.13.2.25.31.38-.1-.12-.21-.25-.31-.37,0,0,0,0,0,0Z"/>
      <path class="cls-1" d="M230.87,2249.9c.33-.33.65-.65.98-.98-.33.33-.65.65-.98.98Z"/>
      <path class="cls-1" d="M230.11,2250.84l.74-.91c-.25.3-.49.61-.74.91Z"/>
      <path class="cls-1" d="M225.86,2285.86c-.23-.22-.47-.43-.7-.65.23-.1.47-.2.7-.3,0,.32,0,.63,0,.95Z"/>
      <path class="cls-1" d="M220.88,2312.93c.33-.35.65-.69.98-1.04,0,.32,0,.63,0,.95-.36,0-.72,0-1.09,0l.11.09Z"/>
      <path class="cls-1" d="M220.85,2323.76c.34.04.68.08,1.01.12,0,.24,0,.48,0,.72-.51.18-1.03.36-1.54.54.18-.46.36-.92.53-1.38Z"/>
      <path class="cls-1" d="M224.93,2282.86c-.34,1.37-.68,2.74-1.02,4.11-.65-.7-1.3-1.4-1.94-2.11,0,0-.1.1-.1.1,0-.39,0-.77,0-1.16,0,0,.1.1.1.1.28-.84.56-1.69,1.46-4.38.79,1.77,1.14,2.55,1.49,3.34Z"/>
      <path class="cls-1" d="M219.88,2315.77c.35.72.7,1.44,1.05,2.16-.71.17-1.42.34-2.13.51.36-.89.72-1.78,1.08-2.67Z"/>
      <path class="cls-1" d="M218.82,2320.28c.33.88.66,1.75.98,2.63,0,0,.1-.1.1-.1h-1.11l.11.1c-.03-.88-.06-1.75-.09-2.63Z"/>
      <path class="cls-1" d="M221.97,2284.86l-.74-.65c.25-.1.49-.2.74-.31,0,0-.1-.1-.1-.1,0,.39,0,.77,0,1.16l.1-.1Z"/>
      <path class="cls-1" d="M218.82,2318.28c0,.72,0,1.45,0,2.17,0-.72,0-1.45,0-2.17Z"/>
      <path class="cls-1" d="M218.88,2323.81c-.23-.1-.46-.2-.7-.29.24-.2.48-.41.72-.61,0,0-.11-.1-.11-.1,0,.37,0,.74,0,1.11,0,0,.08-.11.08-.11Z"/>
      <path class="cls-1" d="M220.46,2325.14c-.53-.44-1.05-.89-1.58-1.33,0,0-.08.11-.08.11.37,0,.74,0,1.11,0,0,0-.1-.11-.1-.11.22.45.43.89.65,1.34Z"/>
      <path class="cls-1" d="M220.76,2317.77c.39.39.79.79,1.18,1.18-.39-.39-.79-.79-1.18-1.18Z"/>
      <path class="cls-1" d="M220.95,2323.94c-.38-.04-.76-.09-1.14-.13,0,0,.1.11.1.11,0-.37,0-.74,0-1.11,0,0-.1.1-.1.1.38.34.76.69,1.14,1.03Z"/>
    </g>
  </g>
</svg>